<svg xmlns="http://www.w3.org/2000/svg" fill="none" viewBox="0 0 16 17">
    <path d="M16 12.602v3.282c0 .34-.276.616-.616.616h-3.282a.615.615 0 0 1 0-1.23h2.667v-2.668a.615.615 0 0 1 1.23 0ZM14.359 1.936v5.013a.615.615 0 1 1-1.23 0V1.936a.205.205 0 0 0-.206-.205H1.436a.205.205 0 0 0-.205.205v11.487a.205.205 0 0 0 .205.205h5.013a.615.615 0 1 1 0 1.23H1.436A1.436 1.436 0 0 1 0 13.424V1.936A1.436 1.436 0 0 1 1.436.5h11.487a1.436 1.436 0 0 1 1.436 1.436Z"/>
    <path d="M15.82 16.32c-.24.24-.63.24-.87 0L6.743 8.115a.615.615 0 0 1 .87-.87l8.206 8.204c.24.24.24.63 0 .87Z"/>
</svg>