<svg xmlns="http://www.w3.org/2000/svg" fill="none" viewBox="0 0 18 18">
    <path d="M9.18 4.298a.697.697 0 1 1 1.395 0v5.58a.698.698 0 0 1-.698.697h-5.58a.698.698 0 0 1 0-1.395H9.18V4.298Z"/>
    <path d="M.202.202a.69.69 0 0 1 .975 0l9.196 9.196a.69.69 0 0 1-.975.975L.202 1.177a.69.69 0 0 1 0-.975Z"/>
    <path d="M0 16.385V9.923a.692.692 0 0 1 1.385 0v6.462a.23.23 0 0 0 .23.23h14.77a.23.23 0 0 0 .23-.23V1.615a.23.23 0 0 0-.23-.23H9.923a.692.692 0 0 1 0-1.385h6.462A1.616 1.616 0 0 1 18 1.615v14.77A1.616 1.616 0 0 1 16.385 18H1.615A1.616 1.616 0 0 1 0 16.385Z"/>
</svg>