<svg viewBox="0 0 14 14" fill="none" xmlns="http://www.w3.org/2000/svg">
    <path d="M1.35557e-06 10.9047V3.82985C1.35557e-06 3.42928 -0.000586574 3.08452 0.0227258 2.80176C0.046748 2.51041 0.0997948 2.22061 0.243173 1.94176C0.457068 1.52575 0.798373 1.18753 1.21817 0.975569L1.24457 0.962507C1.51784 0.830222 1.80119 0.780174 2.08601 0.757113C2.37134 0.734011 2.71925 0.734594 3.12347 0.734594H5.94946C6.36018 0.734594 6.69316 1.06454 6.69316 1.47155C6.69315 1.87857 6.36018 2.20851 5.94946 2.20851H3.12347C2.6947 2.20851 2.41784 2.20909 2.20713 2.22615C2.0051 2.24251 1.9302 2.27029 1.89343 2.28885C1.75349 2.35951 1.63972 2.47224 1.56843 2.6109C1.54969 2.64734 1.52166 2.72158 1.50515 2.92179C1.48794 3.1306 1.48735 3.40496 1.48735 3.82985V10.9047C1.48735 11.3296 1.48794 11.604 1.50515 11.8128C1.52166 12.013 1.54968 12.0873 1.5684 12.1237C1.63749 12.258 1.74643 12.368 1.88032 12.4389L1.89334 12.4457L1.89343 12.4457C1.9302 12.4643 2.0051 12.4921 2.20713 12.5084C2.41784 12.5255 2.6947 12.5261 3.12347 12.5261H10.2628C10.6916 12.5261 10.9685 12.5255 11.1792 12.5084C11.3812 12.4921 11.4561 12.4643 11.4929 12.4457L11.4929 12.4457C11.6328 12.3751 11.7466 12.2623 11.8178 12.1237L11.8179 12.1236C11.8366 12.0872 11.8646 12.013 11.8811 11.8128C11.8984 11.604 11.8989 11.3296 11.8989 10.9047V7.73576C11.8989 7.32875 12.2319 6.99881 12.6426 6.99881C13.0533 6.99881 13.3863 7.32875 13.3863 7.73576V10.9047C13.3863 11.3053 13.3869 11.6501 13.3636 11.9328C13.3395 12.2242 13.2865 12.514 13.1431 12.7929L13.1431 12.7928C12.9292 13.2088 12.5879 13.547 12.1681 13.759L12.1682 13.759C11.8868 13.9011 11.5943 13.9537 11.3003 13.9775C11.015 14.0006 10.6671 14 10.2628 14H3.12347C2.71925 14 2.37134 14.0006 2.08601 13.9775C1.792 13.9537 1.49955 13.9011 1.21815 13.759C0.798304 13.547 0.457055 13.2088 0.243195 12.7928C0.0998067 12.514 0.0467469 12.2242 0.0227258 11.9328C-0.000586348 11.6501 1.34735e-06 11.3053 1.35557e-06 10.9047ZM10.1914 0.647561C11.0626 -0.215846 12.4753 -0.215854 13.3465 0.64754L13.3668 0.667878C14.2178 1.5328 14.211 2.91757 13.3465 3.77424L8.24337 8.83128L8.24334 8.83126C7.69501 9.37472 7.35976 9.71068 6.97097 9.97961L6.97095 9.97959C6.63681 10.2108 6.27652 10.4022 5.89765 10.55C5.45648 10.7221 4.98856 10.813 4.22841 10.965L4.2283 10.9651L3.86543 11.0376C3.62864 11.0849 3.38341 11.0153 3.20779 10.8509C3.03217 10.6866 2.94805 10.4479 2.9822 10.2109L3.0175 9.96612C3.13837 9.12769 3.20953 8.61174 3.38068 8.12444C3.52772 7.70577 3.72859 7.30776 3.97827 6.94008C4.26896 6.512 4.64278 6.14602 5.24713 5.54712L10.1914 0.647561ZM6.29884 6.58936C5.65455 7.22783 5.40399 7.48059 5.21225 7.76295C5.03386 8.02566 4.89039 8.30994 4.78539 8.60892C4.71407 8.81198 4.66638 9.02658 4.60843 9.38241C4.95732 9.30762 5.16078 9.25344 5.3528 9.17853L5.37814 9.16853C5.63974 9.06428 5.88847 8.93099 6.11947 8.77111L6.11964 8.771C6.37606 8.59363 6.60717 8.36829 7.19159 7.78907L7.19163 7.78905L10.3477 4.66145L9.29603 3.61924L6.29884 6.58936ZM12.2948 1.68977C12.0044 1.40199 11.5335 1.40199 11.2431 1.68977L10.3478 2.577L11.3995 3.61924L12.2948 2.732C12.5853 2.44421 12.5852 1.97762 12.2948 1.68982L12.2948 1.68977Z"/>
</svg>
