<svg width="22" height="16" viewBox="0 0 22 16" fill="none" xmlns="http://www.w3.org/2000/svg">
    <path d="M10.1917 13.648V12.184H13.3117V12.856L13.8397 13.408H17.7276L18.2557 12.856V11.824L17.7037 11.248H12.5437L10.2877 8.968V6.352L12.5676 4.048H18.8077L21.1357 6.4V7.864H18.0157V7.192L17.4876 6.64H13.9357L13.4077 7.192V8.128L13.9597 8.704H19.1196L21.3757 10.984V13.696L19.0956 16H12.5197L10.1917 13.648Z" fill="#8FD919"/>
    <path d="M2.87997 13.792V5.608H0.719971V4.048H2.92797V0.160004H4.65597V4.048H8.39997V5.608H4.65597V13.24L5.85597 14.44H8.39997V16H5.08797L2.87997 13.792Z" fill="#8FD919"/>
</svg>
